<svg width="64" height="64" viewBox="0 0 64 64" fill="none" xmlns="http://www.w3.org/2000/svg">
<g clip-path="url(#clip0_3_36)">
<path fill-rule="evenodd" clip-rule="evenodd" d="M64.0001 6.24999C64.0001 2.8005 61.1996 0 57.75 0H6.25001C2.8005 0 0 2.8005 0 6.24999V57.7499C0 61.1994 2.8005 63.9999 6.25001 63.9999H57.75C61.1996 63.9999 64.0001 61.1994 64.0001 57.7499V6.24999Z" fill="#4E3188"/>
<path fill-rule="evenodd" clip-rule="evenodd" d="M59.3125 40.6304V56.8124C59.3125 58.1755 58.2193 59.2853 56.8625 59.3119L40.3362 59.3118L29.5462 40.6304H59.3125ZM37.8775 59.3118H8.64118L23.2674 34.0173L37.8775 59.3118ZM6.29368 59.1475C5.4093 58.8085 4.76619 57.9818 4.69431 56.9977L4.68743 45.8438L16.5731 25.2657H25.8631L6.29368 59.1475ZM34.3593 25.2272C35.1687 25.2306 35.9431 25.706 36.3612 26.4107C36.3656 26.4178 36.3737 26.4322 36.3737 26.4322L38.83 30.6854C38.83 30.6854 38.8443 30.7092 38.8512 30.7206C39.2525 31.4228 39.2681 32.3075 38.8668 33.0223C38.0437 34.4624 37.2075 35.8956 36.3775 37.3323C35.97 38.031 35.1987 38.4869 34.3787 38.4971C32.8143 38.5036 29.6774 38.5 29.6731 38.5C28.8637 38.4966 28.0768 38.0651 27.6581 37.3604C27.6487 37.3452 27.6312 37.314 27.6312 37.314C27.6312 37.314 25.1737 33.0603 25.1687 33.0505C24.7668 32.3483 24.7674 31.4413 25.1687 30.7264C25.1743 30.7159 25.1868 30.6949 25.1868 30.6949C25.1868 30.6949 26.8312 27.8425 27.6543 26.4163C28.0618 25.7177 28.8349 25.237 29.6543 25.2267C29.6681 25.2267 29.6956 25.226 29.6956 25.226L34.3312 25.2272H34.3593ZM57.6181 4.82037L38.1649 38.5H59.3125V7.1875C59.3125 6.08962 58.6031 5.15606 57.6181 4.82037ZM28.4587 4.6875H55.2356L40.7543 29.7598L27.3662 6.57975L28.4587 4.6875ZM34.47 23.1369H17.8024L26.1362 8.70849L34.47 23.1369Z" fill="#EA73FF"/>
</g>
<defs>
<clipPath id="clip0_3_36">
<rect width="64" height="64" fill="white"/>
</clipPath>
</defs>
</svg>
