<svg width="64" height="64" viewBox="0 0 64 64" fill="none" xmlns="http://www.w3.org/2000/svg">
<g clip-path="url(#clip0_3_28)">
<path fill-rule="evenodd" clip-rule="evenodd" d="M64.0001 6.24999C64.0001 2.8005 61.1996 0 57.75 0H6.25001C2.8005 0 0 2.8005 0 6.24999V57.7499C0 61.1994 2.8005 63.9999 6.25001 63.9999H57.75C61.1996 63.9999 64.0001 61.1994 64.0001 57.7499V6.24999Z" fill="#134881"/>
<path fill-rule="evenodd" clip-rule="evenodd" d="M59.3125 56.8318C59.3019 58.2027 58.1857 59.3124 56.8125 59.3124H31.5819L20.7975 40.6327H59.3125V56.8318ZM4.68749 56.8124V45.8445L28.4494 4.6875H37.7356L17.6612 39.4581L29.1238 59.3124H7.18749C5.80749 59.3124 4.68749 58.1922 4.68749 56.8124ZM35.1356 38.5027H25.7469C24.6988 38.5027 23.73 37.9527 23.2063 37.0448C22.6819 36.1374 22.6819 35.0187 23.2063 34.1113C25.2919 30.4988 27.9031 25.9757 27.9031 25.9757L35.1356 38.5027ZM56.8125 4.6875C58.1857 4.6875 59.3019 5.79719 59.3125 7.16806V38.5027H37.595L29.1319 23.8468L40.1938 4.6875H56.8125Z" fill="#38BDFA"/>
</g>
<defs>
<clipPath id="clip0_3_28">
<rect width="64" height="64" fill="white"/>
</clipPath>
</defs>
</svg>
