<svg width="24" height="24" viewBox="0 0 24 24" fill="currentColor" xmlns="http://www.w3.org/2000/svg">
<path d="M11.4053 3C15.2621 3 16.262 3.04779 17.6904 3.19043C21.0478 3.52351 22.9999 5.59491 23 8.57129V8.95215C23 11.7143 20.9764 13.9762 18.2383 14.2139C18.024 14.9285 17.6908 15.6427 17.2383 16.3574C16.1907 17.9763 14.0951 20.0234 10.2383 20.0234H9.47656C6.33351 20.0234 3.90457 18.6667 2.45215 16.1904C1.16643 14.0242 1.00001 11.6191 1 8.40527C1 5.23838 2.90557 3.52429 5.14355 3.23828C6.8342 3.02396 8.92966 3 11.4053 3ZM11.4043 4.78516C8.80953 4.78516 6.95242 4.80913 5.54785 5.02344C3.57191 5.30941 2.78613 6.42891 2.78613 8.42871L2.79688 9.53027C2.84698 11.9911 3.10176 13.7045 3.97656 15.3086C5.11909 17.4277 7.19054 18.2372 9.54785 18.2373H10.2861C13.3811 18.2373 14.8815 16.7378 15.7148 15.4287C16.1196 14.7619 16.4766 14.0237 16.667 13.0947L16.8096 12.5H17.667C19.5719 12.5 21.2148 10.9522 21.2148 8.97559V8.61914C21.2148 6.405 19.8339 5.23744 17.4287 4.95215C16.0719 4.83338 15.2619 4.78516 11.4043 4.78516Z" />
<path d="M16.8108 10.0715C16.8108 10.3575 17.0251 10.5718 17.406 10.5718C18.6202 10.5718 19.287 9.88108 19.287 8.73851C19.287 7.59594 18.6202 6.88135 17.406 6.88135C17.0251 6.88135 16.8108 7.09565 16.8108 7.38162V10.0722V10.0715Z" />
<path d="M5.12031 9.92905C5.12031 11.3337 5.9059 12.548 6.90582 13.5008C7.57264 14.1436 8.62034 14.8106 9.33428 15.2391C9.54858 15.358 9.7629 15.4296 10.0012 15.4296C10.2871 15.4296 10.5246 15.358 10.7157 15.2391C11.4303 14.8106 12.4773 14.1436 13.1203 13.5008C14.1441 12.5486 14.9297 11.3344 14.9297 9.92905C14.9297 8.40496 13.7872 7.0481 12.1443 7.0481C11.1683 7.0481 10.5013 7.54836 10.0012 8.23843C9.54858 7.54771 8.85853 7.0481 7.88184 7.0481C6.2151 7.0481 5.11963 8.40496 5.11963 9.92905"/>
</svg>
