<svg width="200" height="200" viewBox="0 0 200 200" fill="none" xmlns="http://www.w3.org/2000/svg">
<circle cx="91.4444" cy="89.4444" r="82.4444" fill="#E0BE98" stroke="black" stroke-width="4"/>
<rect x="55.4444" y="75.6111" width="136.389" height="117.389" fill="#E0BE98" stroke="black" stroke-width="4"/>
<mask id="path-3-inside-1_1_27" fill="white">
<path d="M174.406 73.6111C175.379 78.7397 175.889 84.0324 175.889 89.4441C175.889 136.082 138.082 173.888 91.4444 173.888C77.7759 173.888 64.8665 170.64 53.4444 164.875V73.6111H174.406Z"/>
</mask>
<path d="M174.406 73.6111C175.379 78.7397 175.889 84.0324 175.889 89.4441C175.889 136.082 138.082 173.888 91.4444 173.888C77.7759 173.888 64.8665 170.64 53.4444 164.875V73.6111H174.406Z" fill="#FAF5F0"/>
<path d="M174.406 73.6111L178.336 72.8656L177.719 69.6111H174.406V73.6111ZM175.889 89.4441L179.889 89.4441L179.889 89.4441L175.889 89.4441ZM53.4444 164.875H49.4444V167.336L51.642 168.446L53.4444 164.875ZM53.4444 73.6111V69.6111H49.4444V73.6111H53.4444ZM174.406 73.6111L170.476 74.3566C171.403 79.2409 171.889 84.2841 171.889 89.4441L175.889 89.4441L179.889 89.4441C179.889 83.7808 179.355 78.2385 178.336 72.8656L174.406 73.6111ZM175.889 89.4441H171.889C171.889 133.872 135.873 169.888 91.4444 169.888V173.888V177.888C140.291 177.888 179.889 138.291 179.889 89.4441H175.889ZM91.4444 173.888V169.888C78.4164 169.888 66.1229 166.794 55.2469 161.304L53.4444 164.875L51.642 168.446C63.6101 174.487 77.1355 177.888 91.4444 177.888V173.888ZM53.4444 164.875H57.4444V73.6111H53.4444H49.4444V164.875H53.4444ZM53.4444 73.6111V77.6111H174.406V73.6111V69.6111H53.4444V73.6111Z" fill="black" mask="url(#path-3-inside-1_1_27)"/>
<rect x="110.444" y="105.278" width="6.33333" height="21.1111" fill="#252424"/>
<path d="M107.278 22.0523L109.534 19.6021L111.864 21.7476L109.599 24.2066L112.932 23.939L113.187 27.0962L109.547 27.3892L112.289 29.7994L110.2 32.1783L107.278 29.6099V33.4996H104.111V30.1685L101.855 32.6197L99.5247 30.4752L101.79 28.0132L98.4564 28.2828L98.2025 25.1265L101.841 24.8326L99.099 22.4224L101.19 20.0445L104.111 22.6109V18.7222H107.278V22.0523Z" fill="#252424"/>
<rect x="132.611" y="105.278" width="6.33333" height="21.1111" fill="#252424"/>
</svg>
